<svg xmlns="http://www.w3.org/2000/svg" width="46" height="70" fill="none"><g clip-path="url(#a)"><path fill="#C08D5D" fill-rule="evenodd" d="M31.976 67.207c-2.776-4.268-4.387-9.444-4.872-14.791-.395-3.814-.317-7.705.05-11.593.723.41 1.52.678 2.309.835 1.544.305 3.075.15 4.507-.212a11.423 11.423 0 0 0 3.932-1.889c1.164-.885 2.227-1.952 2.917-3.472-1.639-.159-3.013-.06-4.328.11-1.311.166-2.525.456-3.704.75-1.177.295-2.306.673-3.46 1.056-.627.205-1.251.42-1.94.65.103-.842.213-1.685.337-2.524.163-1.062.349-2.12.547-3.178.84.594 1.833.958 2.81 1.152 1.544.306 3.074.15 4.506-.212A11.414 11.414 0 0 0 39.519 32c1.164-.884 2.227-1.953 2.917-3.471-1.639-.159-3.012-.06-4.329.11-1.31.165-2.524.456-3.703.75-1.176.294-2.305.672-3.46 1.056-.745.241-1.485.5-2.336.78.31-1.517.653-3.03 1.029-4.538a7.88 7.88 0 0 0 3.652 1.442c1.59.248 3.24.039 4.756-.498a10.128 10.128 0 0 0 4.007-2.575c1.079-1.161 1.963-2.573 2.158-4.293-1.645.42-2.93.854-4.187 1.266l-3.528 1.215-3.487 1.237c-.608.255-1.242.434-1.913.713-.387.163-.786.304-1.202.474.456-1.77.955-3.531 1.49-5.283 1.043.968 2.482 1.462 3.923 1.529 1.664.04 3.277-.45 4.65-1.212 1.382-.768 2.515-1.834 3.396-3.072.86-1.248 1.527-2.657 1.626-4.345-1.594.474-2.854 1.036-4.038 1.614-1.181.566-2.23 1.19-3.257 1.744l-3.014 1.667c-.886.44-1.815.851-3.05 1.32.527-1.69 1.094-3.37 1.682-5.044.682.553 1.498.78 2.288.853a5.539 5.539 0 0 0 2.687-.475c.827-.385 1.586-.93 2.136-1.666.562-.718.949-1.591.994-2.631-.552.024-.963.147-1.391.224-.426.076-.78.21-1.149.301-.7.237-1.344.445-1.943.737-.608.276-1.197.578-1.824.952-.484.29-.974.61-1.553 1.016.452-1.262.924-2.518 1.414-3.768.616.152 1.28.068 1.868-.102a5.598 5.598 0 0 0 2.08-1.182c.606-.513 1.078-1.144 1.462-1.815a8.01 8.01 0 0 0 .456-1.073c.1-.387.2-.766.22-1.186-.391.178-.7.398-1.01.61a9.822 9.822 0 0 0-.872.65c-.562.428-1.06.882-1.561 1.31-.494.439-.976.87-1.483 1.293-.272.225-.543.452-.84.68.13-.326 1.522-3.684 2.084-4.922a115.444 115.444 0 0 0-1.689 3.262c-.056-.495-.075-.95-.097-1.403-.03-.66-.035-1.308-.043-1.97-.022-.659-.021-1.334-.083-2.038a9.82 9.82 0 0 0-.107-1.083c-.053-.374-.098-.75-.23-1.16-.297.297-.508.627-.727.96-.193.341-.345.699-.485 1.061-.237.736-.385 1.51-.357 2.305.012.788.173 1.595.527 2.336.294.6.724 1.192 1.324 1.54-.253.511-1.846 3.92-2.323 5a28.18 28.18 0 0 0-.259-2.392 18.311 18.311 0 0 0-.44-2.014c-.16-.647-.414-1.276-.682-1.967-.166-.34-.29-.7-.505-1.076-.214-.38-.384-.774-.72-1.214-.766.702-1.187 1.56-1.377 2.452-.21.894-.142 1.828.092 2.71a5.562 5.562 0 0 0 1.359 2.372c.636.636 1.447 1.17 2.474 1.262a148.307 148.307 0 0 0-2.149 5.126c-.293-.986-.497-1.75-.718-2.486a21.277 21.277 0 0 0-.895-2.679c-.362-.875-.763-1.775-1.322-2.695a15.16 15.16 0 0 0-2.233-2.912c-.9 1.173-1.22 2.43-1.327 3.67-.09 1.245.1 2.49.573 3.669.477 1.172 1.222 2.294 2.28 3.14.916.707 2.063 1.217 3.281 1.188-.033.086-.07.17-.102.255a127.38 127.38 0 0 0-1.79 4.933c-.213-.35-.421-.671-.59-1.026-.165-.296-.33-.573-.495-.833a11.653 11.653 0 0 0-.435-.818c-.552-1.064-1.108-2-1.622-3.03a78.409 78.409 0 0 0-1.725-3.142c-.645-1.106-1.345-2.248-2.344-3.556-.925 1.395-1.194 2.941-1.183 4.456.026 1.521.43 3.036 1.149 4.421.7 1.391 1.828 2.616 3.168 3.464.345.206.696.394 1.049.564.375.144.763.258 1.143.358.195.043.38.094.576.124.205.014.403.034.61.03.12.002.238-.003.357-.004a113.333 113.333 0 0 0-1.602 5.283c-.686-.88-1.338-1.586-1.934-2.319l-2.4-2.714c-.799-.874-1.603-1.756-2.494-2.686-.903-.933-1.843-1.887-3.101-2.986-.608 1.585-.503 3.212-.107 4.71.403 1.51 1.197 2.902 2.248 4.073 1.047 1.17 2.36 2.13 3.85 2.662a7.626 7.626 0 0 0 3.603.495 104.17 104.17 0 0 0-.893 3.626c-.185.84-.355 1.684-.52 2.532-.637-.804-1.245-1.468-1.803-2.155l-2.4-2.714c-.8-.875-1.603-1.757-2.494-2.685-.903-.934-1.843-1.888-3.1-2.987-.609 1.585-.505 3.212-.107 4.71.402 1.51 1.196 2.903 2.247 4.073 1.047 1.17 2.36 2.13 3.85 2.662a7.623 7.623 0 0 0 3.547.503c-.75 4.257-1.179 8.602-1.034 13.01.02 1.442.176 2.887.319 4.336l.342 2.167c.106.724.31 1.436.465 2.156.386 1.578.882 4.14 1.496 5.67.03.075 1.939.152 5.726.233Z" clip-rule="evenodd"/></g><g clip-path="url(#b)"><path fill="#C08D5D" fill-rule="evenodd" d="M26.855 64.51c-.33-2.525-1.398-5.016-2.95-7.207-1.088-1.578-2.382-3.032-3.784-4.392-.141.39-.358.752-.606 1.068-.489.617-1.12 1.055-1.783 1.383a5.71 5.71 0 0 1-2.108.558c-.73.042-1.48-.02-2.237-.373a9.27 9.27 0 0 1 1.682-1.363c.552-.363 1.108-.647 1.651-.918.544-.27 1.096-.493 1.659-.722.305-.125.612-.247.948-.382a48.847 48.847 0 0 0-.947-.85c-.407-.352-.821-.694-1.24-1.032-.127.5-.386.96-.694 1.35-.488.618-1.12 1.056-1.783 1.383a5.708 5.708 0 0 1-2.108.559c-.73.042-1.48-.02-2.236-.373A9.29 9.29 0 0 1 12 51.835c.552-.362 1.108-.646 1.652-.917.543-.27 1.095-.493 1.658-.722.362-.15.728-.292 1.143-.462-.611-.476-1.233-.94-1.865-1.391a3.94 3.94 0 0 1-.92 1.734c-.525.611-1.22 1.067-1.971 1.355a5.063 5.063 0 0 1-2.36.322c-.787-.091-1.582-.34-2.214-.932.762-.374 1.391-.626 2.003-.878l1.736-.683 1.727-.662c.314-.1.613-.238.96-.35.2-.064.397-.14.61-.21a62.704 62.704 0 0 0-2.282-1.525c-.082.706-.469 1.362-.995 1.855-.62.556-1.392.893-2.161 1.049a5.167 5.167 0 0 1-2.29-.065c-.732-.195-1.442-.515-2.028-1.124a12.61 12.61 0 0 1 2.06-.698c.632-.168 1.234-.272 1.804-.394l1.687-.345c.48-.12.967-.266 1.589-.489-.75-.471-1.51-.926-2.278-1.371-.08.432-.316.783-.593 1.067a2.768 2.768 0 0 1-1.176.692c-.44.122-.905.16-1.353.06a2.262 2.262 0 0 1-1.232-.678c.217-.17.413-.257.601-.366.187-.11.365-.173.535-.259.343-.137.655-.267.978-.35.32-.093.643-.17 1.003-.23.278-.047.569-.085.92-.119a66.463 66.463 0 0 0-1.76-.973c-.186.257-.466.441-.745.567-.375.166-.78.233-1.174.226a3.362 3.362 0 0 1-1.145-.215 4.008 4.008 0 0 1-.522-.26c-.164-.115-.325-.226-.469-.38.207-.058.396-.075.583-.096.186-.022.366-.034.542-.035.352-.02.69-.009 1.019-.01.33.007.653.015.983.01.177-.002.354-.003.54-.014-.155-.08-1.774-.906-2.39-1.194.571.22 1.137.453 1.701.692-.139-.207-.28-.386-.418-.565-.203-.26-.412-.509-.623-.763-.206-.258-.426-.514-.63-.802a4.92 4.92 0 0 1-.312-.447c-.1-.159-.206-.317-.289-.515.21.016.397.073.588.13.184.066.358.153.53.245.329.203.636.45.883.76.252.304.453.663.559 1.06.082.323.111.688-.003 1.015.261.112 1.974.89 2.506 1.146a14.092 14.092 0 0 1-.678-.993 9.15 9.15 0 0 1-.487-.908c-.15-.298-.257-.62-.38-.97-.047-.183-.116-.36-.157-.573-.041-.214-.105-.419-.12-.695.52.018.958.207 1.32.485.37.271.647.649.845 1.06.194.415.281.88.253 1.343-.035.449-.17.915-.53 1.283.834.401 1.66.819 2.48 1.252-.208-.47-.378-.827-.534-1.179-.21-.44-.382-.858-.53-1.309a9.582 9.582 0 0 1-.371-1.454 7.58 7.58 0 0 1-.097-1.832c.723.153 1.253.527 1.697.965.437.444.77.979.973 1.58.199.601.28 1.27.152 1.935-.118.566-.39 1.132-.861 1.517l.121.064c.77.415 1.53.847 2.282 1.294-.032-.202-.057-.392-.108-.582a8.357 8.357 0 0 1-.083-.477 5.864 5.864 0 0 1-.1-.452c-.135-.584-.228-1.12-.367-1.679a39.233 39.233 0 0 1-.364-1.755 16.296 16.296 0 0 1-.264-2.113c.805.23 1.41.73 1.897 1.31.484.587.822 1.294.999 2.054a4.459 4.459 0 0 1-.08 2.346c-.064.19-.137.376-.216.555a5.556 5.556 0 0 1-.318.507c-.06.08-.114.16-.18.234-.073.072-.141.144-.22.21-.046.04-.092.076-.138.114.786.476 1.56.973 2.324 1.489-.025-.557-.006-1.038-.017-1.51l.031-1.812c.02-.59.04-1.188.076-1.83.04-.648.088-1.316.21-2.143.746.406 1.234 1.058 1.57 1.757.337.705.487 1.492.467 2.278-.018.785-.206 1.576-.6 2.262a3.814 3.814 0 0 1-1.208 1.358c.51.355 1.017.716 1.517 1.09.343.258.682.524 1.02.793-.02-.512-.004-.963-.015-1.405l.032-1.81c.02-.593.039-1.19.076-1.832.04-.648.088-1.316.21-2.142.745.405 1.233 1.057 1.57 1.756.336.705.487 1.492.467 2.278-.018.785-.206 1.577-.6 2.262-.28.528-.68.992-1.185 1.343 1.667 1.376 3.241 2.889 4.618 4.611.46.555.87 1.155 1.286 1.753l.574.934c.195.31.348.648.523.971.366.726 1.01 1.861 1.273 2.642.013.038-.688.688-2.102 1.948Z" clip-rule="evenodd"/></g><defs><clipPath id="a"><path fill="#fff" d="M14.694 0h30.518v67.818H14.694z"/></clipPath><clipPath id="b"><path fill="#fff" d="M11.604 33.344 0 43.254l22.02 25.785 11.604-9.91z"/></clipPath></defs></svg>